HIERARCHY
ROOT ui
{
	 OFFSET 0 0 0
	 CHANNELS 3 XPosition YPosition Z Position
	 EndSite
	 {
	 OFFSET 0 -1 0
	 }
}
ROOT li
{
	 OFFSET 0 0 0
	 CHANNELS 3 XPosition YPosition Z Position
	 EndSite
	 {
	 OFFSET 0 -1 0
	 }
}
ROOT ul
{
	 OFFSET 0 0 0
	 CHANNELS 3 XPosition YPosition Z Position
	 EndSite
	 {
	 OFFSET 0 -1 0
	 }
}
ROOT ll
{
	 OFFSET 0 0 0
	 CHANNELS 3 XPosition YPosition Z Position
	 EndSite
	 {
	 OFFSET 0 -1 0
	 }
}
ROOT tt
{
	 OFFSET 0 0 0
	 CHANNELS 3 XPosition YPosition Z Position
	 EndSite
	 {
	 OFFSET 0 -1 0
	 }
}
ROOT tb
{
	 OFFSET 0 0 0
	 CHANNELS 3 XPosition YPosition Z Position
	 EndSite
	 {
	 OFFSET 0 -1 0
	 }
}
ROOT td
{
	 OFFSET 0 0 0
	 CHANNELS 3 XPosition YPosition Z Position
	 EndSite
	 {
	 OFFSET 0 -1 0
	 }
}
ROOT v
{
	 OFFSET 0 0 0
	 CHANNELS 3 XPosition YPosition Z Position
	 EndSite
	 {
	 OFFSET 0 -1 0
	 }
}
ROOT bn
{
	 OFFSET 0 0 0
	 CHANNELS 3 XPosition YPosition Z Position
	 EndSite
	 {
	 OFFSET 0 -1 0
	 }
}
MOTION
Frames: 16
Frame Time: 0.002
-0.0043612651824951176	-9.192159771919251E-4	0		0.3980911865234375	-2.275467529296875	0		-1.2100975341796876	0.08062201690673829	0		-0.8383011474609375	-2.510429443359375	0		1.648803466796875	-0.6225353393554688	0		3.29259521484375	0.0792269058227539	0		4.7904814453125	0.11548815155029298	0		5.57114306640625	0.11005885314941406	0		-0.2668697204589844	5.9097099609375	0		
-0.0517662239074707	6.156989932060242E-4	0		0.4016437072753906	-2.275846435546875	0		-1.194726318359375	0.06904229736328125	0		-0.81064697265625	-2.505228759765625	0		1.6492969970703124	-0.6268689575195312	0		3.31016259765625	0.07857699584960938	0		4.7909267578125	0.10813214111328125	0		5.5665947265625	0.11483786773681641	0		-0.24908137512207032	5.91908447265625	0		
-0.022284624099731445	-2.301280051469803E-4	0		0.38801568603515624	-2.2819248046875	0		-1.1912403564453125	0.0686656494140625	0		-0.8204194946289063	-2.51937255859375	0		1.63280126953125	-0.6259000854492187	0		3.318505126953125	0.07009391021728516	0		4.79164599609375	0.1207825927734375	0		5.5697548828125	0.10891915893554688	0		-0.2455714569091797	5.9187041015625	0		
-0.04086161041259766	0.0027806680202484132	0		0.39343374633789063	-2.279343017578125	0		-1.1878743896484374	0.06828443908691406	0		-0.8238392944335937	-2.507630859375	0		1.63923779296875	-0.6223369140625	0		3.326120361328125	0.08363677215576172	0		4.805759765625	0.1062041244506836	0		5.58272509765625	0.09049308776855469	0		-0.22800834655761718	5.9290703125	0		
-0.014504676818847656	0.009991287231445312	0		0.3918919067382812	-2.266631591796875	0		-1.1805860595703126	0.07183134460449218	0		-0.8185780029296875	-2.506046630859375	0		1.64245751953125	-0.6227086791992188	0		3.315197265625	0.07552190399169922	0		4.79822900390625	0.12003700256347656	0		5.5703125	0.1268449478149414	0		-0.23900430297851563	5.9179443359375	0		
-0.009599653244018555	0.001588392972946167	0		0.4427697448730469	-2.277852783203125	0		-1.10662109375	0.06618759918212891	0		-0.8195830688476563	-2.5103486328125	0		1.6654891357421875	-0.6244225463867188	0		3.3413662109375	0.08176481628417968	0		4.80716845703125	0.11359587097167968	0		5.583044921875	0.10678329467773437	0		-0.2359972381591797	5.91757421875	0		
-0.03578557205200195	-0.0012504169940948486	0		0.4176607666015625	-2.277705322265625	0		-1.1846566162109375	0.07226417541503906	0		-0.829567138671875	-2.50348291015625	0		1.66528759765625	-0.6287078857421875	0		3.312144287109375	0.0770145034790039	0		4.80690576171875	0.10634349060058594	0		5.5809365234375	0.12374685668945312	0		-0.23417738342285158	5.91823291015625	0		
-0.007122923851013183	-0.002057481050491333	0		0.4203575744628906	-2.278042724609375	0		-1.1760809326171875	0.0667994155883789	0		-0.8139942016601562	-2.511067626953125	0		1.6479837646484374	-0.62767236328125	0		3.328807861328125	0.07646559143066406	0		4.8075537109375	0.1050997772216797	0		5.57643505859375	0.12528621673583984	0		-0.23060665893554688	5.916869140625	0		
-0.023530630111694335	0.0049527578353881834	0		0.41869723510742185	-2.28729052734375	0		-1.1695467529296875	0.07038243103027343	0		-0.7867090454101563	-2.5238505859375	0		1.6735076904296875	-0.625384521484375	0		3.334199462890625	0.07213663482666016	0		4.80823046875	0.1168800048828125	0		5.5887138671875	0.1001870346069336	0		-0.2120926971435547	5.924251953125	0		
0.007778799057006836	0.007126337051391602	0		0.4333320617675781	-2.2688095703125	0		-1.1672872314453124	0.07005377960205078	0		-0.7932272338867188	-2.514014404296875	0		1.658870361328125	-0.6203643188476563	0		3.354705322265625	0.08555976867675781	0		4.8263798828125	0.11036625671386718	0		5.58618994140625	0.11902090454101563	0		-0.3594403076171875	5.8965966796875	0		
-0.019211755752563477	0.004352167129516602	0		0.403344970703125	-2.27352294921875	0		-1.169300537109375	0.06581526184082032	0		-0.8158911743164062	-2.500875732421875	0		1.6888814697265624	-0.624124267578125	0		3.326464599609375	0.06886229705810547	0		4.816349609375	0.1053717041015625	0		5.58474462890625	0.1101538314819336	0		-0.2241116485595703	5.91593115234375	0		
0.001520251989364624	-0.0032564539909362795	0		0.4312030944824219	-2.27624951171875	0		-1.1733524169921874	0.07062954711914063	0		-0.8051864013671876	-2.512319580078125	0		1.67664697265625	-0.630117919921875	0		3.342302978515625	0.06739794158935547	0		4.81820703125	0.10518104553222657	0		5.58260888671875	0.12383526611328124	0		-0.23652734375	5.90590576171875	0		
-0.018757030487060546	-1.2035199999809265E-4	0		0.40491082763671876	-2.27599951171875	0		-1.16577734375	0.0652505874633789	0		-0.8034791870117187	-2.512586669921875	0		1.6783233642578126	-0.6303443603515625	0		3.33486279296875	0.061359580993652345	0		4.82374658203125	0.09793632507324218	0		5.580845703125	0.10983698272705078	0		-0.22078311157226563	5.91539794921875	0		
0.004666160106658936	-0.003747320890426636	0		0.43442172241210936	-2.2767265625	0		-1.164298583984375	0.0649954605102539	0		-0.8358662109375	-2.50723388671875	0		1.662904296875	-0.6252544555664062	0		3.34058935546875	0.07510140228271485	0		4.8334365234375	0.10963070678710937	0		5.59537744140625	0.09861360168457031	0		-0.20520249938964844	5.9259072265625	0		
-0.009851052284240722	0.006314169883728027	0		0.4138844604492187	-2.26955224609375	0		-1.1589261474609376	0.06868692779541016	0		-0.79551611328125	-2.50715771484375	0		1.6841953125	-0.6268057250976562	0		3.3557294921875	0.06568145751953125	0		4.83575537109375	0.110460693359375	0		5.5921943359375	0.12103739929199218	0		-0.3515450744628906	5.8952939453125	0		
0.010158512115478515	-0.001225972056388855	0		0.43692147827148436	-2.277140380859375	0		-1.161860595703125	0.06453952789306641	0		-0.7974191284179688	-2.511318359375	0		1.6653604736328125	-0.6256357421875	0		3.369075927734375	0.07730357360839844	0		4.827662109375	0.09747676086425781	0		5.5930068359375	0.12080013275146484	0		-0.2312869415283203	5.90497607421875	0		
